Coordinates
version=1
nRows=17
nColumns=24
inDegrees=yes

Units are S.I. units (second, meters, Newtons, ...)
Angles are in degrees.

endheader
time	pelvis_tilt	pelvis_list	pelvis_rotation	pelvis_tx	pelvis_ty	pelvis_tz	hip_flexion_r	hip_adduction_r	hip_rotation_r	knee_angle_r	ankle_angle_r	subtalar_angle_r	mtp_angle_r	hip_flexion_l	hip_adduction_l	hip_rotation_l	knee_angle_l	ankle_angle_l	subtalar_angle_l	mtp_angle_l	lumbar_extension	lumbar_bending	lumbar_rotation
      3.26000000	    -10.47968603	     -1.59216045	      6.72499999	     -2.19577634	     -0.02792795	      0.39023834	     29.75329020	     -1.61328910	    -11.63415789	     -6.37403359	     -6.93095640	      8.42652100	      9.10814633	     -3.52657246	     -0.43074057	     11.74342872	    -18.85925166	      4.46136957	     18.04526292	     19.07163026	      8.71031465	      0.19209442	    -11.38300429
      3.26500000	    -10.52127725	     -1.81228135	      6.80094486	     -2.18849546	     -0.02817116	      0.39081250	     29.71154941	     -1.37643387	    -11.64699483	     -6.99694888	     -7.70515005	      8.08645949	      8.89872500	     -3.28053283	     -0.78031132	     11.26583309	    -19.89781843	      3.80727327	     18.93549631	     20.09658702	      8.88272302	      0.39822755	    -11.38457085
      3.27000000	    -10.56802640	     -2.08513467	      6.83582845	     -2.18122466	     -0.02837067	      0.39145667	     29.67726256	     -1.06909835	    -11.63020276	     -7.58519405	     -8.62729376	      7.61123478	      8.61313305	     -2.97491698	     -1.19913966	     10.70178273	    -20.99353185	      3.06330532	     19.88409264	     21.23850202	      9.06093788	      0.66798045	    -11.39984886
      3.27500000	    -10.61439030	     -2.32224572	      6.77993121	     -2.17398796	     -0.02850072	      0.39226826	     29.62767334	     -0.73126005	    -11.26195105	     -8.10565867	     -9.71246716	      6.67676991	      8.24977544	     -2.66602335	     -1.58652508	     10.09611068	    -22.04241905	      2.02217536	     20.65138960	     22.77266727	      9.22115858	      0.91022622	    -11.21977417
      3.28000000	    -10.65396050	     -2.73909120	      6.83615015	     -2.16669799	     -0.02857999	      0.39288058	     29.58035610	     -0.30131167	    -11.27789311	     -8.63735291	    -10.63532107	      6.06704959	      7.94164966	     -2.23759700	     -2.18741271	      9.47259017	    -23.28232407	      1.07810782	     21.67778963	     23.88113784	      9.41189839	      1.32986303	    -11.28155060
      3.28500000	    -10.70003610	     -3.02666645	      6.70423726	     -2.15954824	     -0.02858223	      0.39384512	     29.55126827	      0.14396409	    -10.62883797	     -9.14987062	    -11.75089262	      4.67255135	      7.51080634	     -1.84275643	     -2.65218247	      8.80911697	    -24.39233956	     -0.28533534	     22.42794881	     25.59588242	      9.55662599	      1.63081584	    -11.08195989
      3.29000000	    -10.74096702	     -3.41476182	      6.64911090	     -2.15236946	     -0.02856220	      0.39467095	     29.52821769	      0.64166280	    -10.15377893	     -9.70268407	    -12.61420778	      3.43206183	      7.15435699	     -1.35887566	     -3.23734746	      8.17564395	    -25.62208440	     -1.69850981	     23.26688339	     27.16315960	      9.71665507	      2.02901783	    -11.00908927
      3.29500000	    -10.78310407	     -3.82121180	      6.56177220	     -2.14524699	     -0.02853286	      0.39550905	     29.53666601	      1.18411451	     -9.57954401	    -10.32385691	    -13.31254892	      2.11944085	      6.75492380	     -0.82706512	     -3.83848182	      7.57893682	    -26.89796688	     -3.26990655	     24.02415922	     28.74643936	      9.86873378	      2.45641995	    -10.91507718
      3.30000000	    -10.82863492	     -4.22286980	      6.45441963	     -2.13814428	     -0.02850183	      0.39635835	     29.57227290	      1.74731439	     -8.94351306	    -11.01689413	    -13.80328773	      0.77031630	      6.33374038	     -0.25989116	     -4.42815565	      7.04805325	    -28.19205289	     -5.01628518	     24.68229976	     30.36197549	     10.01577840	      2.88206120	    -10.80503064
      3.30500000	    -10.86732990	     -4.60168887	      6.30492680	     -2.13103735	     -0.02845528	      0.39716419	     29.61945253	      2.31804366	     -8.26381846	    -11.77525962	    -14.08867286	     -0.53558000	      5.95880160	      0.30925065	     -4.96709926	      6.59681428	    -29.46577260	     -7.02112427	     25.05978301	     32.10710272	     10.14949443	      3.30252906	    -10.64696211
      3.31000000	    -10.91069722	     -4.98979646	      6.21210872	     -2.12408865	     -0.02847901	      0.39794832	     29.70130589	      2.88554619	     -7.63985745	    -12.61239052	    -14.14982556	     -1.78490728	      5.47462598	      0.98141810	     -5.51603907	      6.27553770	    -30.88537740	     -8.96494761	     25.65665936	     33.51866878	     10.26585136	      3.71216616	    -10.56922242
      3.31500000	    -10.96393170	     -5.38003156	      6.08333161	     -2.11705049	     -0.02852403	      0.39867089	     29.78381045	      3.47956662	     -7.03646444	    -13.45972342	    -14.05760122	     -2.95510645	      4.99772290	      1.67048332	     -6.03372363	      6.03575191	    -32.30163570	    -11.08421986	     26.00767737	     34.82864383	     10.40660924	      4.14016490	    -10.44822163
      3.32000000	    -10.99773197	     -5.70499834	      5.95655500	     -2.11022244	     -0.02859246	      0.39936430	     29.86111805	      4.01578307	     -6.43426331	    -14.34408048	    -13.82701425	     -4.01746925	      4.54962234	      2.39304794	     -6.45372285	      5.89697493	    -33.77291044	    -13.27676726	     26.22027920	     36.11535067	     10.48024313	      4.49966816	    -10.32254118
      3.32500000	    -11.01257097	     -6.01797252	      5.83859305	     -2.10350550	     -0.02868572	      0.39996802	     29.91458126	      4.53395261	     -5.92076774	    -15.22389499	    -13.49216130	     -4.93038691	      4.14283788	      3.14919052	     -6.83495525	      5.83019552	    -35.31289222	    -15.46512393	     26.32976204	     37.19578669	     10.51430612	      4.85421265	    -10.21023551
      3.33000000	    -11.02113597	     -6.34284962	      5.73991724	     -2.09677117	     -0.02879354	      0.40049412	     29.91585054	      5.05768377	     -5.47477493	    -16.02655746	    -13.09172342	     -5.75674381	      3.76434622	      3.93990277	     -7.19800327	      5.85669084	    -36.91359533	    -17.62920248	     26.31357163	     37.89868960	     10.55002762	      5.22149512	    -10.10274814
      3.33500000	    -10.92084097	     -6.69636693	      5.66802392	     -2.09012735	     -0.02885247	      0.40086737	     29.77667935	      5.58977107	     -5.21739991	    -16.76071261	    -12.61294172	     -6.37483517	      3.61429963	      4.68369155	     -7.58389666	      5.86140950	    -38.63070952	    -19.64375619	     26.13873619	     38.07875367	     10.45876640	      5.63958195	    -10.02277358
      3.34000000	    -11.00381678	     -6.95099705	      5.54470943	     -2.08361768	     -0.02908543	      0.40147253	     29.80670824	      6.06280564	     -4.74702476	    -17.47553680	    -12.17577464	     -7.14680640	      3.12230297	      5.63934274	     -7.83638873	      5.91467689	    -40.31342694	    -21.69123431	     25.82565428	     38.58820959	     10.52959485	      5.90953825	     -9.89080143
